<svg width="24" height="24" viewBox="0 0 24 24" fill="none" xmlns="http://www.w3.org/2000/svg">
<path d="M12 0.5L16.226 6.683L23.413 8.792L18.838 14.722L19.053 22.208L12 19.69L4.947 22.208L5.162 14.722L0.587 8.792L7.774 6.683L12 0.5ZM10 12H8C7.99998 13.0436 8.40779 14.0458 9.1364 14.7929C9.86502 15.54 10.8567 15.9727 11.9 15.9988C12.9432 16.0249 13.9553 15.6423 14.7204 14.9326C15.4854 14.2228 15.9428 13.2422 15.995 12.2L16 12H14C14.0023 12.519 13.8028 13.0185 13.4436 13.3932C13.0844 13.7678 12.5937 13.9881 12.0751 14.0075C11.5564 14.027 11.0506 13.8441 10.6643 13.4975C10.278 13.1509 10.0416 12.6677 10.005 12.15L10 12Z" fill="#1E1E1E"/>
</svg>
