<svg width="24" height="24" viewBox="0 0 24 24" fill="none" xmlns="http://www.w3.org/2000/svg">
<path d="M4.75 5C4.33579 5 4 5.33579 4 5.75C4 6.16421 4.33579 6.5 4.75 6.5H18.75C19.1642 6.5 19.5 6.16421 19.5 5.75C19.5 5.33579 19.1642 5 18.75 5H4.75Z" fill="#1E1E1E"/>
<path d="M4.75 11C4.33579 11 4 11.3358 4 11.75C4 12.1642 4.33579 12.5 4.75 12.5H10.75C11.1642 12.5 11.5 12.1642 11.5 11.75C11.5 11.3358 11.1642 11 10.75 11H4.75Z" fill="#1E1E1E"/>
<path d="M4.75 17C4.33579 17 4 17.3358 4 17.75C4 18.1642 4.33579 18.5 4.75 18.5H18.75C19.1642 18.5 19.5 18.1642 19.5 17.75C19.5 17.3358 19.1642 17 18.75 17H4.75Z" fill="#1E1E1E"/>
</svg>
