<svg width="24" height="24" viewBox="0 0 24 24" fill="none" xmlns="http://www.w3.org/2000/svg">
<path d="M17.1732 15.6126C16.8803 15.3197 16.4055 15.3197 16.1126 15.6126C15.8197 15.9055 15.8197 16.3804 16.1126 16.6732L17.1732 15.6126ZM18.9696 19.5304C19.2625 19.8233 19.7374 19.8233 20.0303 19.5304C20.3232 19.2375 20.3232 18.7626 20.0303 18.4697L18.9696 19.5304ZM16.1126 16.6732L18.9696 19.5304L20.0303 18.4697L17.1732 15.6126L16.1126 16.6732ZM10.9286 16.1071C7.79238 16.1071 5.25 13.5648 5.25 10.4286H3.75C3.75 14.3932 6.96396 17.6071 10.9286 17.6071V16.1071ZM16.6071 10.4286C16.6071 13.5648 14.0648 16.1071 10.9286 16.1071V17.6071C14.8932 17.6071 18.1071 14.3932 18.1071 10.4286H16.6071ZM10.9286 4.75C14.0648 4.75 16.6071 7.29238 16.6071 10.4286H18.1071C18.1071 6.46396 14.8932 3.25 10.9286 3.25V4.75ZM10.9286 3.25C6.96396 3.25 3.75 6.46396 3.75 10.4286H5.25C5.25 7.29238 7.79238 4.75 10.9286 4.75V3.25Z" fill="#1E1E1E"/>
</svg>
